<mxfile host="Electron" agent="Mozilla/5.0 (Macintosh; Intel Mac OS X 10_15_7) AppleWebKit/537.36 (KHTML, like Gecko) draw.io/25.0.2 Chrome/128.0.6613.186 Electron/32.2.5 Safari/537.36" version="25.0.2">
  <diagram name="Page-1" id="2YBvvXClWsGukQMizWep">
    <mxGraphModel dx="1382" dy="711" grid="1" gridSize="10" guides="1" tooltips="1" connect="1" arrows="1" fold="1" page="1" pageScale="1" pageWidth="850" pageHeight="1100" math="0" shadow="0">
      <root>
        <mxCell id="0" />
        <mxCell id="1" parent="0" />
        <mxCell id="dDHSBj2hVmgegide-I1T-29" value="Lost Mode" style="rounded=1;whiteSpace=wrap;html=1;align=left;spacingLeft=5;" vertex="1" parent="1">
          <mxGeometry x="-30" y="410" width="650" height="260" as="geometry" />
        </mxCell>
        <mxCell id="dDHSBj2hVmgegide-I1T-28" value="Overmature&lt;div&gt;&amp;nbsp;Lost mode&lt;/div&gt;" style="rounded=1;whiteSpace=wrap;html=1;align=left;spacingLeft=2;" vertex="1" parent="1">
          <mxGeometry x="170" y="530" width="450" height="140" as="geometry" />
        </mxCell>
        <mxCell id="dDHSBj2hVmgegide-I1T-17" value="Connected Mode" style="rounded=1;whiteSpace=wrap;html=1;align=left;spacingLeft=5;" vertex="1" parent="1">
          <mxGeometry x="-30" y="330" width="300" height="70" as="geometry" />
        </mxCell>
        <mxCell id="dDHSBj2hVmgegide-I1T-13" value="Registration/Initial&lt;div&gt;&amp;nbsp;Pairing Process&lt;/div&gt;" style="rounded=1;whiteSpace=wrap;html=1;align=left;spacingLeft=5;" vertex="1" parent="1">
          <mxGeometry x="-30" y="90" width="470" height="230" as="geometry" />
        </mxCell>
        <mxCell id="aM9ryv3xv72pqoxQDRHE-1" value="Owner" style="shape=umlLifeline;perimeter=lifelinePerimeter;whiteSpace=wrap;html=1;container=0;dropTarget=0;collapsible=0;recursiveResize=0;outlineConnect=0;portConstraint=eastwest;newEdgeStyle={&quot;edgeStyle&quot;:&quot;elbowEdgeStyle&quot;,&quot;elbow&quot;:&quot;vertical&quot;,&quot;curved&quot;:0,&quot;rounded&quot;:0};" parent="1" vertex="1">
          <mxGeometry x="40" y="40" width="100" height="640" as="geometry" />
        </mxCell>
        <mxCell id="aM9ryv3xv72pqoxQDRHE-2" value="" style="html=1;points=[];perimeter=orthogonalPerimeter;outlineConnect=0;targetShapes=umlLifeline;portConstraint=eastwest;newEdgeStyle={&quot;edgeStyle&quot;:&quot;elbowEdgeStyle&quot;,&quot;elbow&quot;:&quot;vertical&quot;,&quot;curved&quot;:0,&quot;rounded&quot;:0};" parent="aM9ryv3xv72pqoxQDRHE-1" vertex="1">
          <mxGeometry x="45" y="70" width="10" height="190" as="geometry" />
        </mxCell>
        <mxCell id="dDHSBj2hVmgegide-I1T-14" value="" style="html=1;points=[];perimeter=orthogonalPerimeter;outlineConnect=0;targetShapes=umlLifeline;portConstraint=eastwest;newEdgeStyle={&quot;edgeStyle&quot;:&quot;elbowEdgeStyle&quot;,&quot;elbow&quot;:&quot;vertical&quot;,&quot;curved&quot;:0,&quot;rounded&quot;:0};" vertex="1" parent="aM9ryv3xv72pqoxQDRHE-1">
          <mxGeometry x="45" y="300" width="10" height="50" as="geometry" />
        </mxCell>
        <mxCell id="dDHSBj2hVmgegide-I1T-20" value="" style="html=1;points=[];perimeter=orthogonalPerimeter;outlineConnect=0;targetShapes=umlLifeline;portConstraint=eastwest;newEdgeStyle={&quot;edgeStyle&quot;:&quot;elbowEdgeStyle&quot;,&quot;elbow&quot;:&quot;vertical&quot;,&quot;curved&quot;:0,&quot;rounded&quot;:0};" vertex="1" parent="aM9ryv3xv72pqoxQDRHE-1">
          <mxGeometry x="45" y="370" width="10" height="240" as="geometry" />
        </mxCell>
        <mxCell id="aM9ryv3xv72pqoxQDRHE-5" value="Tag (&lt;i&gt;pub&lt;sub style=&quot;&quot;&gt;&lt;font&gt;tag&lt;/font&gt;&lt;/sub&gt;&lt;font&gt;, priv&lt;sub style=&quot;&quot;&gt;tag&lt;/sub&gt;)&lt;/font&gt;&lt;/i&gt;" style="shape=umlLifeline;perimeter=lifelinePerimeter;whiteSpace=wrap;html=1;container=0;dropTarget=0;collapsible=0;recursiveResize=0;outlineConnect=0;portConstraint=eastwest;newEdgeStyle={&quot;edgeStyle&quot;:&quot;elbowEdgeStyle&quot;,&quot;elbow&quot;:&quot;vertical&quot;,&quot;curved&quot;:0,&quot;rounded&quot;:0};" parent="1" vertex="1">
          <mxGeometry x="170" y="40" width="150" height="640" as="geometry" />
        </mxCell>
        <mxCell id="aM9ryv3xv72pqoxQDRHE-6" value="" style="html=1;points=[];perimeter=orthogonalPerimeter;outlineConnect=0;targetShapes=umlLifeline;portConstraint=eastwest;newEdgeStyle={&quot;edgeStyle&quot;:&quot;elbowEdgeStyle&quot;,&quot;elbow&quot;:&quot;vertical&quot;,&quot;curved&quot;:0,&quot;rounded&quot;:0};" parent="aM9ryv3xv72pqoxQDRHE-5" vertex="1">
          <mxGeometry x="70" y="70" width="10" height="170" as="geometry" />
        </mxCell>
        <mxCell id="dDHSBj2hVmgegide-I1T-15" value="" style="html=1;points=[];perimeter=orthogonalPerimeter;outlineConnect=0;targetShapes=umlLifeline;portConstraint=eastwest;newEdgeStyle={&quot;edgeStyle&quot;:&quot;elbowEdgeStyle&quot;,&quot;elbow&quot;:&quot;vertical&quot;,&quot;curved&quot;:0,&quot;rounded&quot;:0};" vertex="1" parent="aM9ryv3xv72pqoxQDRHE-5">
          <mxGeometry x="70" y="300" width="10" height="50" as="geometry" />
        </mxCell>
        <mxCell id="dDHSBj2hVmgegide-I1T-19" value="" style="html=1;points=[];perimeter=orthogonalPerimeter;outlineConnect=0;targetShapes=umlLifeline;portConstraint=eastwest;newEdgeStyle={&quot;edgeStyle&quot;:&quot;elbowEdgeStyle&quot;,&quot;elbow&quot;:&quot;vertical&quot;,&quot;curved&quot;:0,&quot;rounded&quot;:0};" vertex="1" parent="aM9ryv3xv72pqoxQDRHE-5">
          <mxGeometry x="70" y="370" width="10" height="240" as="geometry" />
        </mxCell>
        <mxCell id="dDHSBj2hVmgegide-I1T-1" value="Samsung Server (&lt;i&gt;pub&lt;sub&gt;tag&lt;/sub&gt;)&lt;/i&gt;" style="shape=umlLifeline;perimeter=lifelinePerimeter;whiteSpace=wrap;html=1;container=0;dropTarget=0;collapsible=0;recursiveResize=0;outlineConnect=0;portConstraint=eastwest;newEdgeStyle={&quot;edgeStyle&quot;:&quot;elbowEdgeStyle&quot;,&quot;elbow&quot;:&quot;vertical&quot;,&quot;curved&quot;:0,&quot;rounded&quot;:0};" vertex="1" parent="1">
          <mxGeometry x="350" y="40" width="150" height="640" as="geometry" />
        </mxCell>
        <mxCell id="dDHSBj2hVmgegide-I1T-2" value="" style="html=1;points=[];perimeter=orthogonalPerimeter;outlineConnect=0;targetShapes=umlLifeline;portConstraint=eastwest;newEdgeStyle={&quot;edgeStyle&quot;:&quot;elbowEdgeStyle&quot;,&quot;elbow&quot;:&quot;vertical&quot;,&quot;curved&quot;:0,&quot;rounded&quot;:0};" vertex="1" parent="dDHSBj2hVmgegide-I1T-1">
          <mxGeometry x="70" y="70" width="10" height="170" as="geometry" />
        </mxCell>
        <mxCell id="dDHSBj2hVmgegide-I1T-18" value="" style="html=1;points=[];perimeter=orthogonalPerimeter;outlineConnect=0;targetShapes=umlLifeline;portConstraint=eastwest;newEdgeStyle={&quot;edgeStyle&quot;:&quot;elbowEdgeStyle&quot;,&quot;elbow&quot;:&quot;vertical&quot;,&quot;curved&quot;:0,&quot;rounded&quot;:0};" vertex="1" parent="dDHSBj2hVmgegide-I1T-1">
          <mxGeometry x="70" y="370" width="10" height="240" as="geometry" />
        </mxCell>
        <mxCell id="dDHSBj2hVmgegide-I1T-3" value="Helper" style="shape=umlLifeline;perimeter=lifelinePerimeter;whiteSpace=wrap;html=1;container=0;dropTarget=0;collapsible=0;recursiveResize=0;outlineConnect=0;portConstraint=eastwest;newEdgeStyle={&quot;edgeStyle&quot;:&quot;elbowEdgeStyle&quot;,&quot;elbow&quot;:&quot;vertical&quot;,&quot;curved&quot;:0,&quot;rounded&quot;:0};" vertex="1" parent="1">
          <mxGeometry x="540" y="40" width="100" height="640" as="geometry" />
        </mxCell>
        <mxCell id="dDHSBj2hVmgegide-I1T-4" value="" style="html=1;points=[];perimeter=orthogonalPerimeter;outlineConnect=0;targetShapes=umlLifeline;portConstraint=eastwest;newEdgeStyle={&quot;edgeStyle&quot;:&quot;elbowEdgeStyle&quot;,&quot;elbow&quot;:&quot;vertical&quot;,&quot;curved&quot;:0,&quot;rounded&quot;:0};" vertex="1" parent="dDHSBj2hVmgegide-I1T-3">
          <mxGeometry x="45" y="370" width="10" height="240" as="geometry" />
        </mxCell>
        <mxCell id="dDHSBj2hVmgegide-I1T-7" value="Querying Data" style="edgeStyle=elbowEdgeStyle;rounded=0;orthogonalLoop=1;jettySize=auto;html=1;elbow=vertical;curved=0;startArrow=classic;startFill=1;verticalAlign=bottom;" edge="1" parent="1">
          <mxGeometry relative="1" as="geometry">
            <mxPoint x="95" y="120" as="sourcePoint" />
            <mxPoint x="240" y="120" as="targetPoint" />
          </mxGeometry>
        </mxCell>
        <mxCell id="dDHSBj2hVmgegide-I1T-9" value="Key Establishment" style="edgeStyle=elbowEdgeStyle;rounded=0;orthogonalLoop=1;jettySize=auto;html=1;elbow=vertical;curved=0;startArrow=classic;startFill=1;align=left;verticalAlign=bottom;" edge="1" parent="1" source="aM9ryv3xv72pqoxQDRHE-2" target="dDHSBj2hVmgegide-I1T-2">
          <mxGeometry relative="1" as="geometry">
            <Array as="points">
              <mxPoint x="260" y="140" />
            </Array>
          </mxGeometry>
        </mxCell>
        <mxCell id="dDHSBj2hVmgegide-I1T-10" value="Auth &amp;amp; Confirm&amp;nbsp;&lt;div&gt;physical possession&lt;/div&gt;" style="edgeStyle=elbowEdgeStyle;rounded=0;orthogonalLoop=1;jettySize=auto;html=1;elbow=vertical;curved=0;align=center;verticalAlign=bottom;horizontal=1;startArrow=classic;startFill=1;" edge="1" parent="1" source="aM9ryv3xv72pqoxQDRHE-2" target="aM9ryv3xv72pqoxQDRHE-6">
          <mxGeometry relative="1" as="geometry">
            <Array as="points">
              <mxPoint x="168" y="170" />
            </Array>
          </mxGeometry>
        </mxCell>
        <mxCell id="dDHSBj2hVmgegide-I1T-11" value="Ownership check &amp;amp;&amp;nbsp;&lt;div&gt;finalize registration&lt;/div&gt;" style="edgeStyle=elbowEdgeStyle;rounded=0;orthogonalLoop=1;jettySize=auto;html=1;elbow=vertical;curved=0;startArrow=classic;startFill=1;verticalAlign=bottom;align=left;" edge="1" parent="1" source="aM9ryv3xv72pqoxQDRHE-2" target="dDHSBj2hVmgegide-I1T-2">
          <mxGeometry relative="1" as="geometry" />
        </mxCell>
        <mxCell id="dDHSBj2hVmgegide-I1T-12" value="Finalize Registration" style="edgeStyle=elbowEdgeStyle;rounded=0;orthogonalLoop=1;jettySize=auto;html=1;elbow=vertical;curved=0;verticalAlign=bottom;startArrow=classic;startFill=1;" edge="1" parent="1" source="aM9ryv3xv72pqoxQDRHE-2" target="aM9ryv3xv72pqoxQDRHE-6">
          <mxGeometry relative="1" as="geometry">
            <Array as="points">
              <mxPoint x="168" y="220" />
            </Array>
          </mxGeometry>
        </mxCell>
        <mxCell id="dDHSBj2hVmgegide-I1T-16" value="Auth &amp;amp; commands" style="edgeStyle=elbowEdgeStyle;rounded=0;orthogonalLoop=1;jettySize=auto;html=1;elbow=vertical;curved=0;startArrow=classic;startFill=1;verticalAlign=bottom;" edge="1" parent="1" source="dDHSBj2hVmgegide-I1T-14" target="dDHSBj2hVmgegide-I1T-15">
          <mxGeometry relative="1" as="geometry" />
        </mxCell>
        <mxCell id="dDHSBj2hVmgegide-I1T-21" value="Privacy ID broadcast/Beacon" style="edgeStyle=elbowEdgeStyle;rounded=0;orthogonalLoop=1;jettySize=auto;html=1;elbow=vertical;curved=0;align=right;verticalAlign=bottom;" edge="1" parent="1" source="dDHSBj2hVmgegide-I1T-19" target="dDHSBj2hVmgegide-I1T-4">
          <mxGeometry relative="1" as="geometry">
            <Array as="points">
              <mxPoint x="420" y="430" />
            </Array>
          </mxGeometry>
        </mxCell>
        <mxCell id="dDHSBj2hVmgegide-I1T-22" value="Location Report" style="edgeStyle=elbowEdgeStyle;rounded=0;orthogonalLoop=1;jettySize=auto;html=1;elbow=vertical;curved=0;verticalAlign=bottom;" edge="1" parent="1" source="dDHSBj2hVmgegide-I1T-4" target="dDHSBj2hVmgegide-I1T-18">
          <mxGeometry relative="1" as="geometry">
            <Array as="points">
              <mxPoint x="508" y="460" />
            </Array>
          </mxGeometry>
        </mxCell>
        <mxCell id="dDHSBj2hVmgegide-I1T-23" value="Query tag Location" style="edgeStyle=elbowEdgeStyle;rounded=0;orthogonalLoop=1;jettySize=auto;html=1;elbow=vertical;curved=0;verticalAlign=bottom;align=right;spacingLeft=0;labelPosition=center;verticalLabelPosition=middle;horizontal=1;spacingRight=50;startArrow=classic;startFill=1;" edge="1" parent="1" source="dDHSBj2hVmgegide-I1T-20" target="dDHSBj2hVmgegide-I1T-18">
          <mxGeometry relative="1" as="geometry">
            <Array as="points">
              <mxPoint x="258" y="490" />
            </Array>
            <mxPoint as="offset" />
          </mxGeometry>
        </mxCell>
        <mxCell id="dDHSBj2hVmgegide-I1T-26" value="Unkown tag Check &amp;amp;&lt;div&gt;Request Temp key&lt;/div&gt;" style="edgeStyle=elbowEdgeStyle;rounded=0;orthogonalLoop=1;jettySize=auto;html=1;elbow=vertical;curved=0;startArrow=classic;startFill=1;verticalAlign=bottom;" edge="1" parent="1" source="dDHSBj2hVmgegide-I1T-18" target="dDHSBj2hVmgegide-I1T-4">
          <mxGeometry relative="1" as="geometry">
            <Array as="points">
              <mxPoint x="508" y="610" />
            </Array>
          </mxGeometry>
        </mxCell>
        <mxCell id="dDHSBj2hVmgegide-I1T-27" value="Auth (temp key) &amp;amp; play sound" style="edgeStyle=elbowEdgeStyle;rounded=0;orthogonalLoop=1;jettySize=auto;html=1;elbow=vertical;curved=0;verticalAlign=bottom;startArrow=classic;startFill=1;align=right;" edge="1" parent="1" source="dDHSBj2hVmgegide-I1T-19" target="dDHSBj2hVmgegide-I1T-4">
          <mxGeometry relative="1" as="geometry">
            <Array as="points">
              <mxPoint x="410" y="640" />
            </Array>
          </mxGeometry>
        </mxCell>
        <mxCell id="dDHSBj2hVmgegide-I1T-30" value="Privacy ID broadcast/Beacon" style="edgeStyle=elbowEdgeStyle;rounded=0;orthogonalLoop=1;jettySize=auto;html=1;elbow=vertical;curved=0;align=right;verticalAlign=bottom;" edge="1" parent="1" source="dDHSBj2hVmgegide-I1T-19" target="dDHSBj2hVmgegide-I1T-4">
          <mxGeometry relative="1" as="geometry">
            <mxPoint x="260" y="440" as="sourcePoint" />
            <mxPoint x="580" y="560" as="targetPoint" />
            <Array as="points">
              <mxPoint x="580" y="560" />
            </Array>
          </mxGeometry>
        </mxCell>
      </root>
    </mxGraphModel>
  </diagram>
</mxfile>
